<mxfile host="65bd71144e" scale="5" border="0">
    <diagram id="rN1daEITJgVsYRZeRuWg" name="Page-1">
        <mxGraphModel dx="1066" dy="623" grid="1" gridSize="10" guides="1" tooltips="1" connect="1" arrows="1" fold="1" page="1" pageScale="1" pageWidth="850" pageHeight="1100" math="0" shadow="0">
            <root>
                <mxCell id="0"/>
                <mxCell id="1" parent="0"/>
                <mxCell id="2" value="&lt;font data-font-src=&quot;https://fontlibrary.org//face/cmu-serif&quot; face=&quot;CMU&quot;&gt;&lt;i&gt;Docker-Compose&lt;/i&gt;&lt;br&gt;&lt;b&gt;alamSYS&lt;/b&gt;&lt;/font&gt;" style="rounded=0;whiteSpace=wrap;html=1;fillColor=#0050ef;fontColor=#ffffff;strokeColor=#001DBC;verticalAlign=top;" vertex="1" parent="1">
                    <mxGeometry x="70" y="110" width="680" height="250" as="geometry"/>
                </mxCell>
                <mxCell id="16" value="" style="group" vertex="1" connectable="0" parent="1">
                    <mxGeometry x="535" y="160" width="190" height="180" as="geometry"/>
                </mxCell>
                <mxCell id="5" value="&lt;i&gt;Docker 3&lt;/i&gt;&lt;br&gt;&lt;b&gt;alamDB&lt;/b&gt;" style="rounded=0;whiteSpace=wrap;html=1;fontFamily=CMU;fontSource=https%3A%2F%2Ffontlibrary.org%2F%2Fface%2Fcmu-serif;fillColor=#f5f5f5;strokeColor=#666666;fontColor=#333333;verticalAlign=top;" vertex="1" parent="16">
                    <mxGeometry width="190" height="180" as="geometry"/>
                </mxCell>
                <mxCell id="12" value="Volume: /data/db" style="rounded=0;whiteSpace=wrap;html=1;fontFamily=CMU;fontSource=https%3A%2F%2Ffontlibrary.org%2F%2Fface%2Fcmu-serif;verticalAlign=middle;" vertex="1" parent="16">
                    <mxGeometry x="15" y="60" width="160" height="30" as="geometry"/>
                </mxCell>
                <mxCell id="13" value="Base Image: Mongo &lt;br&gt;&lt;i&gt;(v 4.0)&lt;/i&gt;" style="rounded=0;whiteSpace=wrap;html=1;fontFamily=CMU;fontSource=https%3A%2F%2Ffontlibrary.org%2F%2Fface%2Fcmu-serif;verticalAlign=middle;" vertex="1" parent="16">
                    <mxGeometry x="15" y="140" width="160" height="30" as="geometry"/>
                </mxCell>
                <mxCell id="14" value="Network Port: 27017" style="rounded=0;whiteSpace=wrap;html=1;fontFamily=CMU;fontSource=https%3A%2F%2Ffontlibrary.org%2F%2Fface%2Fcmu-serif;verticalAlign=middle;" vertex="1" parent="16">
                    <mxGeometry x="15" y="100" width="160" height="30" as="geometry"/>
                </mxCell>
                <mxCell id="17" value="" style="group" vertex="1" connectable="0" parent="1">
                    <mxGeometry x="315" y="160" width="190" height="180" as="geometry"/>
                </mxCell>
                <mxCell id="4" value="&lt;i&gt;Docker 2&lt;br&gt;&lt;/i&gt;&lt;b&gt;alamAPI&lt;/b&gt;" style="rounded=0;whiteSpace=wrap;html=1;fontFamily=CMU;fontSource=https%3A%2F%2Ffontlibrary.org%2F%2Fface%2Fcmu-serif;fillColor=#f5f5f5;strokeColor=#666666;fontColor=#333333;verticalAlign=top;" vertex="1" parent="17">
                    <mxGeometry width="190" height="180" as="geometry"/>
                </mxCell>
                <mxCell id="7" value="Base Image: Python &lt;br&gt;&lt;i&gt;(Alpine 3.16)&lt;/i&gt;" style="rounded=0;whiteSpace=wrap;html=1;fontFamily=CMU;fontSource=https%3A%2F%2Ffontlibrary.org%2F%2Fface%2Fcmu-serif;verticalAlign=middle;" vertex="1" parent="17">
                    <mxGeometry x="15" y="140" width="160" height="30" as="geometry"/>
                </mxCell>
                <mxCell id="9" value="Volume: /data/db" style="rounded=0;whiteSpace=wrap;html=1;fontFamily=CMU;fontSource=https%3A%2F%2Ffontlibrary.org%2F%2Fface%2Fcmu-serif;verticalAlign=middle;" vertex="1" parent="17">
                    <mxGeometry x="15" y="60" width="160" height="30" as="geometry"/>
                </mxCell>
                <mxCell id="11" value="Network Port: 8000" style="rounded=0;whiteSpace=wrap;html=1;fontFamily=CMU;fontSource=https%3A%2F%2Ffontlibrary.org%2F%2Fface%2Fcmu-serif;verticalAlign=middle;" vertex="1" parent="17">
                    <mxGeometry x="15" y="100" width="160" height="30" as="geometry"/>
                </mxCell>
                <mxCell id="18" value="" style="group" vertex="1" connectable="0" parent="1">
                    <mxGeometry x="95" y="160" width="190" height="180" as="geometry"/>
                </mxCell>
                <mxCell id="3" value="&lt;i&gt;Docker 1&lt;/i&gt;&lt;br&gt;&lt;b&gt;alamPREPROCESSOR&lt;/b&gt;" style="rounded=0;whiteSpace=wrap;html=1;fontFamily=CMU;fontSource=https%3A%2F%2Ffontlibrary.org%2F%2Fface%2Fcmu-serif;fillColor=#f5f5f5;strokeColor=#666666;fontColor=#333333;verticalAlign=top;" vertex="1" parent="18">
                    <mxGeometry width="190" height="180" as="geometry"/>
                </mxCell>
                <mxCell id="6" value="Volume: None" style="rounded=0;whiteSpace=wrap;html=1;fontFamily=CMU;fontSource=https%3A%2F%2Ffontlibrary.org%2F%2Fface%2Fcmu-serif;verticalAlign=middle;" vertex="1" parent="18">
                    <mxGeometry x="15" y="60" width="160" height="30" as="geometry"/>
                </mxCell>
                <mxCell id="8" value="Network Port: None" style="rounded=0;whiteSpace=wrap;html=1;fontFamily=CMU;fontSource=https%3A%2F%2Ffontlibrary.org%2F%2Fface%2Fcmu-serif;verticalAlign=middle;" vertex="1" parent="18">
                    <mxGeometry x="15" y="100" width="160" height="30" as="geometry"/>
                </mxCell>
                <mxCell id="15" value="Base Image: Python &lt;br&gt;&lt;i&gt;(v 3.10.10)&lt;/i&gt;" style="rounded=0;whiteSpace=wrap;html=1;fontFamily=CMU;fontSource=https%3A%2F%2Ffontlibrary.org%2F%2Fface%2Fcmu-serif;verticalAlign=middle;" vertex="1" parent="18">
                    <mxGeometry x="15" y="140" width="160" height="30" as="geometry"/>
                </mxCell>
                <mxCell id="20" value="&lt;font face=&quot;CMU&quot;&gt;&lt;i&gt;Docker Engine&lt;/i&gt;&lt;/font&gt;" style="rounded=0;whiteSpace=wrap;html=1;fillColor=#fff2cc;strokeColor=#d6b656;verticalAlign=middle;" vertex="1" parent="1">
                    <mxGeometry x="70" y="370" width="680" height="30" as="geometry"/>
                </mxCell>
                <mxCell id="21" value="&lt;font face=&quot;CMU&quot;&gt;&lt;i&gt;Host Operating Machine&lt;/i&gt;&lt;/font&gt;" style="rounded=0;whiteSpace=wrap;html=1;fillColor=#e1d5e7;strokeColor=#9673a6;verticalAlign=middle;" vertex="1" parent="1">
                    <mxGeometry x="70" y="410" width="680" height="30" as="geometry"/>
                </mxCell>
                <mxCell id="22" value="&lt;font face=&quot;CMU&quot;&gt;&lt;i&gt;Server Infrastracture&lt;/i&gt;&lt;/font&gt;" style="rounded=0;whiteSpace=wrap;html=1;fillColor=#f8cecc;strokeColor=#b85450;verticalAlign=middle;" vertex="1" parent="1">
                    <mxGeometry x="70" y="450" width="680" height="30" as="geometry"/>
                </mxCell>
            </root>
        </mxGraphModel>
    </diagram>
</mxfile>